<?xml version="1.0" standalone="no"?>
<!DOCTYPE svg PUBLIC "-//W3C//DTD SVG 20010904//EN"
 "http://www.w3.org/TR/2001/REC-SVG-20010904/DTD/svg10.dtd">
<svg version="1.0" xmlns="http://www.w3.org/2000/svg"
 width="600.000000pt" height="600.000000pt" viewBox="0 0 600.000000 600.000000"
 preserveAspectRatio="xMidYMid meet">
<metadata>
Created by potrace 1.11, written by Peter Selinger 2001-2013
</metadata>
<g transform="translate(0.000000,600.000000) scale(0.100000,-0.100000)"
fill="#000000" stroke="none">
<path d="M3015 5654 c-304 -41 -559 -150 -740 -315 -40 -36 -84 -65 -130 -84
-463 -189 -873 -527 -1151 -947 -159 -241 -282 -531 -348 -818 -43 -190 -51
-280 -51 -555 0 -303 15 -422 81 -662 156 -569 526 -1081 1022 -1412 50 -34
92 -63 92 -64 0 -1 -23 -105 -50 -231 -28 -127 -50 -231 -50 -233 0 -2 237 -2
528 -1 l527 3 10 60 11 60 34 -1 c19 -1 105 -5 190 -9 230 -11 452 11 699 71
69 16 107 21 111 14 4 -6 14 -53 24 -105 l18 -95 525 0 525 0 -8 33 c-4 17
-39 181 -79 364 l-71 332 94 93 c366 363 605 799 701 1285 152 761 -40 1521
-533 2108 -96 115 -262 277 -359 350 -49 37 -74 65 -98 110 -201 375 -530 589
-996 650 -139 18 -391 18 -528 -1z m-485 -1614 l0 -540 -530 0 -530 0 0 540 0
540 530 0 530 0 0 -540z m1744 508 c23 -133 28 -233 23 -458 -5 -252 -19 -356
-71 -532 l-17 -58 -571 0 -570 0 28 33 c77 91 144 361 144 580 0 134 -36 347
-75 450 -7 16 23 17 548 17 l555 0 6 -32z m-1744 -2673 l0 -545 -530 0 -530 0
0 545 0 545 530 0 530 0 0 -545z m1205 533 c2 -7 78 -245 169 -528 90 -283
168 -523 171 -532 7 -17 -21 -18 -506 -18 l-514 0 -133 538 c-73 295 -132 540
-132 545 0 4 212 7 470 7 368 0 472 -3 475 -12z"/>
</g>
</svg>
