<svg id="Layer_1" xmlns="http://www.w3.org/2000/svg" width="100" height="100" viewBox="0 0 100 100"><title/><g fill="#DF531C"><path d="M4.292 15.042L83.993 95l8.009-8.009-79.7-79.958zM72.943 51.779c.043-.586.068-1.18.068-1.779 0-9.204-5.113-16.875-12.785-20.455v9.477l12.717 12.757z"/><path d="M68.671 63.536l-8.442-8.472v15.391a21.994 21.994 0 0 0 8.442-6.919zM85.796 50c0 4.411-.786 8.595-2.216 12.449l7.777 7.804A46.068 46.068 0 0 0 96.023 50c0-21.988-15.342-40.398-35.797-45v10.737C75.061 20.341 85.796 33.635 85.796 50zM77.723 72.615c-4.473 5.41-10.531 9.486-17.494 11.646V95c9.826-2.209 18.463-7.611 24.795-15.061l-7.301-7.324zM32.171 26.919l-7.739 7.74H3.977v30.682h20.455L50 90.91V44.805zM50 28.761V9.09l-9.818 9.819z"/></g></svg>