<?xml version="1.0" encoding="utf-8"?>
<!-- Generator: Adobe Illustrator 15.0.0, SVG Export Plug-In . SVG Version: 6.00 Build 0)  -->
<!DOCTYPE svg PUBLIC "-//W3C//DTD SVG 1.1//EN" "http://www.w3.org/Graphics/SVG/1.1/DTD/svg11.dtd">
<svg version="1.1" id="Layer_1" xmlns:sketch="http://www.bohemiancoding.com/sketch/ns"
	 xmlns="http://www.w3.org/2000/svg" xmlns:xlink="http://www.w3.org/1999/xlink" x="0px" y="0px" width="100px" height="100px"
	 viewBox="0 0 100 100" enable-background="new 0 0 100 100" xml:space="preserve">
<title></title>
<desc></desc>
<path fill="#FFFFFF" d="M50,5C25.25,5,5,25.25,5,50s20.25,45,45,45s45-20.25,45-45S74.75,5,50,5L50,5z"/>
<path fill="#DF531C" d="M50,86c-19.8,0-36-16.198-36-36c0-19.8,16.2-36,36-36c19.802,0,36,16.2,36,36C86,69.802,69.802,86,50,86
	L50,86z"/>
<g>
	<polygon points="36.5,68 45.5,68 45.5,32 36.5,32 	"/>
	<polygon points="54.5,68 63.5,68 63.5,32 54.5,32 	"/>
</g>
</svg>
