<?xml version="1.0" encoding="utf-8"?>
<!-- Generator: Adobe Illustrator 15.0.0, SVG Export Plug-In . SVG Version: 6.00 Build 0)  -->
<!DOCTYPE svg PUBLIC "-//W3C//DTD SVG 1.1//EN" "http://www.w3.org/Graphics/SVG/1.1/DTD/svg11.dtd">
<svg version="1.1" id="Layer_1" xmlns:sketch="http://www.bohemiancoding.com/sketch/ns"
	 xmlns="http://www.w3.org/2000/svg" xmlns:xlink="http://www.w3.org/1999/xlink" x="0px" y="0px" width="100px" height="100px"
	 viewBox="0 0 100 100" enable-background="new 0 0 100 100" xml:space="preserve">
<title></title>
<desc></desc>
<g id="Page-1">
	<g id="Icons-AV" transform="translate(-211.000000, -170.000000)">
		<g id="volume-up" transform="translate(211.000000, 170.000000)">
			<path id="Shape" fill="#DF531C" d="M3.977,34.659v30.682h20.455L50,90.91V9.09L24.432,34.659H3.977L3.977,34.659z M73.014,50
				c0-9.204-5.113-16.875-12.785-20.455v40.91C67.898,66.874,73.014,59.204,73.014,50L73.014,50z M60.229,5v10.737
				C75.061,20.341,85.796,33.635,85.796,50S75.061,79.659,60.229,84.264V95c20.455-4.6,35.795-23.012,35.795-45
				C96.023,28.012,80.684,9.602,60.229,5L60.229,5z"/>
		</g>
	</g>
</g>
</svg>
