<?xml version="1.0" encoding="utf-8"?>
<!-- Generator: Adobe Illustrator 15.0.0, SVG Export Plug-In . SVG Version: 6.00 Build 0)  -->
<!DOCTYPE svg PUBLIC "-//W3C//DTD SVG 1.1//EN" "http://www.w3.org/Graphics/SVG/1.1/DTD/svg11.dtd">
<svg version="1.1" id="Layer_1" xmlns:sketch="http://www.bohemiancoding.com/sketch/ns"
	 xmlns="http://www.w3.org/2000/svg" xmlns:xlink="http://www.w3.org/1999/xlink" x="0px" y="0px" width="100px" height="100px"
	 viewBox="0 0 100 100" enable-background="new 0 0 100 100" xml:space="preserve">
<title></title>
<desc></desc>
<g>
	<polygon fill="#DF531C" points="4.292,15.042 83.993,95 92.002,86.991 12.302,7.033 	"/>
	<g>
		<path fill="#DF531C" d="M72.943,51.779c0.043-0.586,0.068-1.18,0.068-1.779c0-9.204-5.113-16.875-12.785-20.455v9.477
			L72.943,51.779z"/>
		<path fill="#DF531C" d="M68.671,63.536l-8.442-8.472v15.391C63.615,68.874,66.501,66.492,68.671,63.536z"/>
		<path fill="#DF531C" d="M85.796,50c0,4.411-0.786,8.595-2.216,12.449l7.777,7.804C94.34,64.137,96.023,57.268,96.023,50
			c0-21.988-15.342-40.398-35.797-45v10.737C75.061,20.341,85.796,33.635,85.796,50z"/>
		<path fill="#DF531C" d="M77.723,72.615c-4.473,5.41-10.531,9.486-17.494,11.646V95c9.826-2.209,18.463-7.611,24.795-15.061
			L77.723,72.615z"/>
		<polygon fill="#DF531C" points="32.171,26.919 24.432,34.659 3.977,34.659 3.977,65.341 24.432,65.341 50,90.91 50,44.805 		"/>
		<polygon fill="#DF531C" points="50,28.761 50,9.09 40.182,18.909 		"/>
	</g>
</g>
</svg>
